<?xml version="1.0" encoding="utf-8"?>
<!-- Generator: Adobe Illustrator 19.2.1, SVG Export Plug-In . SVG Version: 6.00 Build 0)  -->
<svg version="1.1" id="Layer_2" xmlns="http://www.w3.org/2000/svg" xmlns:xlink="http://www.w3.org/1999/xlink" x="0px" y="0px"
	 viewBox="0 0 80.3 80.3" style="enable-background:new 0 0 80.3 80.3;" xml:space="preserve">
<style type="text/css">
	.st0{fill:#EB6A5C;}
	.st1{fill:#552F2F;}
	.st2{fill:#55AB99;}
	.st3{fill:#2F4555;}
	.st4{fill:#FFFFFF;}
	.st5{fill:#ED6B5A;}
	.st6{fill:#0C2C48;}
	.st7{fill:#F1CC4B;}
	.st8{clip-path:url(#SVGID_2_);}
	.st9{clip-path:url(#SVGID_2_);fill:#F6A09C;}
	.st10{fill:#50646F;}
	.st11{fill:#FCA886;}
	.st12{fill:#EDAB7E;}
	.st13{fill:#332319;}
	.st14{fill:#E07E45;}
	.st15{fill:#FF8F8F;}
	.st16{fill:#A6D1D9;}
	.st17{fill:#628185;}
	.st18{fill:#BABABA;}
	.st19{fill:#698391;}
	.st20{opacity:0.41;fill:#FFFFFF;}
	.st21{fill:#F6A09C;}
	.st22{fill:#FFF3C9;}
	.st23{fill:#2384AB;}
	.st24{fill:#BABFC5;}
	.st25{clip-path:url(#SVGID_4_);}
	.st26{fill:#6EB9E0;}
	.st27{fill:#F8A06D;}
	.st28{fill:#A3B9C4;}
	.st29{fill:#3B4A52;}
	.st30{clip-path:url(#SVGID_6_);}
	.st31{clip-path:url(#SVGID_8_);fill:#F6A09C;}
	.st32{opacity:0.21;fill:#FFFFFF;}
	.st33{clip-path:url(#SVGID_10_);fill:#F6A09C;}
	.st34{clip-path:url(#SVGID_12_);}
	.st35{fill:#FFD3B5;}
	.st36{fill:#BFD9E6;}
	.st37{fill:#798287;}
	.st38{fill:#A4A8AD;}
	.st39{fill:#FFD6BA;}
	.st40{fill:none;stroke:#0C2C48;stroke-width:1.4;stroke-miterlimit:10;}
</style>
<g>
	<circle class="st6" cx="40" cy="40.3" r="40.2"/>
	<g>
		<g>
			<polygon class="st5" points="63.6,56.6 27.8,56.6 27.8,11.5 53.6,11.5 63.6,22.1 			"/>
			<polygon class="st21" points="63.6,22.1 53.6,22.1 53.6,11.5 			"/>
		</g>
		<g>
			<g>
				<rect x="32" y="24.2" class="st21" width="21.9" height="2.2"/>
			</g>
			<g>
				<rect x="32" y="32.2" class="st21" width="21.9" height="2.2"/>
			</g>
			<g>
				<rect x="32" y="40.2" class="st21" width="21.9" height="2.2"/>
			</g>
			<g>
				<rect x="32" y="48.2" class="st21" width="21.9" height="2.2"/>
			</g>
		</g>
		<g>
			<path class="st6" d="M70.2,56.1L58.7,44.7c1.5-2.2,2.3-4.9,2.3-7.7c0-7.9-6.3-14.2-14.2-14.3c-7.9,0-14.2,6.3-14.3,14.2
				c0,7.9,6.3,14.2,14.2,14.3c2.6,0,4.9-0.7,7-1.8l11.6,11.6c0.5,0.5,1.3,0.5,1.7,0l3-3C70.6,57.4,70.6,56.6,70.2,56.1z M46.8,48.9
				c-6.6,0-12-5.4-11.9-12c0-6.6,5.4-12,12-11.9c6.6,0,12,5.4,11.9,12C58.8,43.6,53.4,48.9,46.8,48.9z"/>
			<ellipse transform="matrix(2.653164e-03 -1 1 2.653164e-03 9.7425 83.702)" class="st32" cx="46.8" cy="37" rx="12" ry="12"/>
			<g>
				<path class="st4" d="M53.7,32.2c-1.4-2.1-3.5-3.5-6-4.1l0.3-1.5c2.8,0.6,5.2,2.3,6.9,4.7L53.7,32.2z"/>
			</g>
		</g>
	</g>
	<g>
		<defs>
			<circle id="SVGID_9_" cx="40.3" cy="40.1" r="40.2"/>
		</defs>
		<clipPath id="SVGID_2_">
			<use xlink:href="#SVGID_9_"  style="overflow:visible;"/>
		</clipPath>
		<path class="st9" d="M47.4,85.8L66.3,96l18-30.5l0,0c0.6-1.3,0-2.9-1.3-3.6c-1.1-0.6-2.4-0.4-3.2,0.4l1-1.9
			c0.8-1.4,0.2-3.1-1.2-3.9c-1.1-0.6-2.4-0.4-3.2,0.4l0.5-1c0.8-1.4,0.2-3.1-1.2-3.9c-1.1-0.6-2.4-0.4-3.2,0.4l0.1-0.1
			c0.8-1.4,0.2-3.1-1.2-3.9c-1.4-0.8-3.1-0.2-3.9,1.2l-6.4,11.6l0.2-0.6c-0.3-1.6-1.8-2.6-3.3-2.3c-1.6,0.3-2.6,1.8-2.3,3.3l1.3,9.2
			L47.4,85.8z"/>
	</g>
	<g>
		<defs>
			<circle id="SVGID_11_" cx="40.3" cy="40" r="40.2"/>
		</defs>
		<clipPath id="SVGID_4_">
			<use xlink:href="#SVGID_11_"  style="overflow:visible;"/>
		</clipPath>
		<g class="st25">
			<path class="st6" d="M9.6,60.5v-4c0-5.3,4.3-9.7,9.7-9.7h7.4c5.3,0,9.7,4.3,9.7,9.7v4h2.8v-4c0-6.2-4.5-11.3-10.4-12.3
				c1.3-1.4,2.1-3.3,2.1-5.4v-3.8c0-4.4-3.6-7.9-7.9-7.9c-4.4,0-7.9,3.6-7.9,7.9v3.8c0,2.1,0.8,4,2.2,5.4c-5.9,1-10.4,6.1-10.4,12.3
				v4H9.6z M17.8,35.1c0-2.8,2.3-5.2,5.2-5.2c2.8,0,5.2,2.3,5.2,5.2v3.8c0,2.8-2.3,5.2-5.2,5.2c-2.8,0-5.2-2.3-5.2-5.2V35.1z"/>
			<rect x="12.3" y="54" class="st6" width="4.1" height="6.6"/>
			<rect x="30.1" y="54" class="st6" width="4.1" height="6.6"/>
			<g>
				<g>
					<path class="st11" d="M29.5,38.9c0,3.6-2.9,6.5-6.5,6.5l0,0c-3.6,0-6.5-2.9-6.5-6.5v-3.8c0-3.6,2.9-6.5,6.5-6.5l0,0
						c3.6,0,6.5,2.9,6.5,6.5V38.9z"/>
				</g>
				<path class="st23" d="M13.7,60.5v-5.2H15v5.2h16.4v-5.2h1.3v5.2h4.9v-4c0-6.1-5-11.1-11.1-11.1h-7.4c-6.1,0-11.1,5-11.1,11.1v4
					H13.7z"/>
			</g>
		</g>
	</g>
</g>
</svg>
